<svg width="32" height="32" viewBox="0 0 32 32" fill="none" xmlns="http://www.w3.org/2000/svg">
<path d="M24.5 11.3076V9.43262H30.125V1.93262H17V9.43262H22.625V11.3076H9.375V9.43262H15V1.93262H1.875V9.43262H7.5V11.3076H0C0 11.7511 0 30.5402 0 30.0576H1.875V16.9326H30.125V30.0576H32C32 28.7803 32 10.5261 32 11.3076H24.5Z" fill="#0FA76F"/>
<path d="M3.75 24.4326H7.5V28.1826H5.625V30.0576H11.25V28.1826H9.375V24.4326H13.125V18.8076H3.75V24.4326Z" fill="#0FA76F"/>
<path d="M18.875 24.4326H22.625V28.1826H20.75V30.0576H26.375V28.1826H24.5V24.4326H28.25V18.8076H18.875V24.4326Z" fill="#0FA76F"/>
</svg>
