<svg width="63" height="63" viewBox="0 0 63 63" fill="none" xmlns="http://www.w3.org/2000/svg">
<path d="M62.4822 30.7099H57.1796C56.8424 16.652 45.4589 5.35926 31.4709 5.35926C17.4829 5.35926 6.09921 16.652 5.76226 30.7099H0.5C0.816653 13.8096 14.597 4.33871e-05 31.4936 4.33871e-05C39.6125 -0.0136158 47.4114 3.19835 53.2085 8.94326C59.0055 14.6882 62.3362 22.5057 62.4822 30.7099Z" fill="#18484C"/>
<path d="M29.3184 57.0848V62.5821C13.5126 61.4783 0.969977 48.3888 0.520508 32.2465H5.84545C6.13695 40.9535 10.8353 48.887 17.8789 53.3273C17.4567 52.0142 17.1571 50.5443 17.1571 49.0962V14.0669H22.4765V35.8306H27.7958V41.2096H22.4765V49.0963C22.4765 52.408 24.5383 55.268 27.3192 56.5893C27.9481 56.8821 28.6268 57.0503 29.3184 57.0849" fill="#96CA4D"/>
<path d="M62.5003 31.9904C62.2698 43.7232 55.6621 53.8737 46.0394 59.054V50.171C46.0394 49.915 46.0217 49.6896 46.0217 49.4361C46.0217 44.8705 42.2923 41.2085 37.7773 41.2085H29.3176V35.8314H36.2952C40.81 35.8314 44.4839 32.2004 44.4839 27.6376C44.4839 23.0748 40.81 19.4435 36.2952 19.4435H23.9971V14.0659H36.2952C43.7541 14.0659 49.8247 20.1244 49.8247 27.6655C49.8247 31.8291 47.9726 35.5087 45.0591 38.0105C48.1931 40.0336 50.6 42.7451 50.8533 48.3786C55.4139 43.2572 57.1875 36.3435 57.1875 31.9904H62.5003Z" fill="#96CA4B"/>
</svg>
