<svg width="32" height="32" viewBox="0 0 32 32" fill="none" xmlns="http://www.w3.org/2000/svg">
<path d="M5.11434 21.121C5.99967 21.913 7.00367 22.541 8.07967 23.013L13.7383 19.4597C14.909 18.721 16.477 18.8957 17.457 19.881L19.3597 21.7837C22.2117 19.681 23.9997 16.317 23.9997 12.6663C23.9997 6.41701 18.9157 1.33301 12.6663 1.33301C6.41701 1.33301 1.33301 6.41701 1.33301 12.6663C1.33301 15.8917 2.71034 18.973 5.11434 21.121ZM13.173 13.6663H12.1597C10.601 13.6663 9.33301 12.3983 9.33301 10.8397C9.33301 9.43834 10.3437 8.28501 11.6663 8.05034V6.99967C11.6663 6.44767 12.1143 5.99967 12.6663 5.99967C13.2183 5.99967 13.6663 6.44767 13.6663 6.99967V7.99967H14.9997C15.5517 7.99967 15.9997 8.44767 15.9997 8.99967C15.9997 9.55167 15.5517 9.99967 14.9997 9.99967H12.1597C11.7037 9.99967 11.333 10.3703 11.333 10.8263C11.333 11.2957 11.7037 11.6663 12.1597 11.6663H13.173C14.7317 11.6663 15.9997 12.9343 15.9997 14.493C15.9997 15.8943 14.989 17.0477 13.6663 17.2823V18.3317C13.6663 18.8837 13.2183 19.3317 12.6663 19.3317C12.1143 19.3317 11.6663 18.8837 11.6663 18.3317V17.333H10.333C9.78101 17.333 9.33301 16.885 9.33301 16.333C9.33301 15.781 9.78101 15.333 10.333 15.333H13.173C13.629 15.333 13.9997 14.9623 13.9997 14.5063C13.9997 14.037 13.629 13.6663 13.173 13.6663Z" fill="white"/>
<path d="M30.6662 16H25.3328C24.7942 16 24.3062 16.3253 24.1008 16.8227C23.8942 17.3213 24.0088 17.8947 24.3902 18.276L26.1142 20L20.6662 25.448L16.2755 21.0573C15.8395 20.6187 15.1542 20.5427 14.6315 20.8667L0.631515 29.5333C0.00484816 29.9213 -0.187152 30.7427 0.199515 31.368C0.451515 31.776 0.887515 32 1.33418 32C1.57418 32 1.81551 31.936 2.03418 31.8L15.1355 23.6893L19.7222 28.276C20.2435 28.7973 21.0862 28.7973 21.6075 28.276L27.9995 21.8853L29.7235 23.6093C29.9782 23.864 30.3195 24 30.6662 24C30.8382 24 31.0115 23.9667 31.1768 23.8987C31.6755 23.692 31.9995 23.2053 31.9995 22.6667V17.3333C31.9995 16.5973 31.4035 16 30.6662 16Z" fill="white"/>
</svg>
