<svg width="29" height="26" viewBox="0 0 29 26" fill="none" xmlns="http://www.w3.org/2000/svg">
<path d="M27.9257 7.67686C27.903 6.60608 27.6887 5.54669 27.2917 4.5437C26.9499 3.6829 26.4137 2.90294 25.7207 2.25817C25.0385 1.60123 24.213 1.09307 23.3017 0.769163C22.2415 0.393589 21.1216 0.190793 19.9897 0.169399C18.5347 0.106963 18.0697 0.0918274 14.3647 0.0918274C10.6597 0.0918274 10.1937 0.106963 8.7387 0.169399C7.60715 0.190955 6.48763 0.393747 5.4277 0.769163C4.51713 1.09326 3.69228 1.60141 3.0107 2.25817C2.31661 2.90268 1.77946 3.68265 1.4367 4.5437C1.03971 5.54669 0.825338 6.60608 0.802703 7.67686C0.736703 9.05329 0.720703 9.49318 0.720703 12.9981C0.720703 16.503 0.736703 16.9429 0.802703 18.3194C0.825299 19.3901 1.03967 20.4495 1.4367 21.4525C1.77888 22.3149 2.31607 23.0963 3.0107 23.7418C3.69224 24.3986 4.5171 24.9068 5.4277 25.2308C6.48791 25.6065 7.6078 25.8093 8.7397 25.8306C10.1947 25.893 10.6597 25.9082 14.3647 25.9082C18.0697 25.9082 18.5347 25.893 19.9897 25.8306C21.1216 25.8093 22.2415 25.6065 23.3017 25.2308C24.208 24.8993 25.0311 24.3923 25.7182 23.7423C26.4053 23.0923 26.9412 22.3137 27.2917 21.4563C27.6887 20.4533 27.9031 19.3939 27.9257 18.3231C27.9917 16.9467 28.0077 16.5068 28.0077 13.0019C28.0077 9.49696 27.9917 9.05329 27.9257 7.67686ZM25.4697 18.2143C25.4593 19.0327 25.3003 19.8432 24.9997 20.6106C24.7728 21.1673 24.4253 21.6729 23.9794 22.0949C23.5335 22.5169 22.9991 22.8459 22.4107 23.0607C21.5995 23.3451 20.7427 23.4955 19.8777 23.5053C18.4397 23.5678 18.0077 23.581 14.3647 23.581C10.7217 23.581 10.2897 23.5678 8.8517 23.5053C7.98735 23.4953 7.13125 23.3449 6.3207 23.0607C5.72798 22.8537 5.19185 22.5237 4.7517 22.0948C4.2973 21.6788 3.94737 21.1716 3.7277 20.6106C3.42706 19.8432 3.26808 19.0327 3.2577 18.2143C3.1917 16.8531 3.1777 16.4453 3.1777 12.9991C3.1777 9.55277 3.1917 9.1441 3.2577 7.78375C3.2684 6.96608 3.42738 6.15622 3.7277 5.38943C3.94619 4.82773 4.29509 4.31955 4.7487 3.90232C5.18972 3.47339 5.72694 3.14364 6.3207 2.9374C7.13186 2.65295 7.98867 2.50255 8.8537 2.49278C10.2927 2.43034 10.7237 2.4171 14.3667 2.4171C18.0097 2.4171 18.4417 2.43034 19.8797 2.49278C20.7447 2.50261 21.6015 2.653 22.4127 2.9374C23.0054 3.14446 23.5415 3.4745 23.9817 3.90326C24.4343 4.32039 24.7821 4.82825 24.9997 5.38943C25.3005 6.15676 25.4595 6.96732 25.4697 7.78565C25.5357 9.14694 25.5497 9.55467 25.5497 13.0009C25.5497 16.4472 25.5357 16.8531 25.4697 18.2143Z" fill="#EBEBEB"/>
<path d="M14.3673 6.37112C12.9817 6.37112 11.6271 6.75983 10.475 7.48809C9.32287 8.21635 8.4249 9.25145 7.89463 10.4625C7.36436 11.6735 7.22562 13.0062 7.49595 14.2918C7.76628 15.5774 8.43353 16.7584 9.41334 17.6853C10.3931 18.6122 11.6415 19.2434 13.0005 19.4991C14.3596 19.7549 15.7682 19.6236 17.0484 19.122C18.3286 18.6203 19.4228 17.7709 20.1926 16.6809C20.9624 15.591 21.3733 14.3096 21.3733 12.9988C21.3733 11.241 20.6352 9.55526 19.3213 8.31233C18.0074 7.0694 16.2254 6.37112 14.3673 6.37112ZM14.3673 17.3012C13.4678 17.3012 12.5885 17.0489 11.8406 16.5761C11.0927 16.1034 10.5097 15.4314 10.1655 14.6453C9.82129 13.8591 9.73123 12.994 9.90672 12.1594C10.0822 11.3249 10.5153 10.5582 11.1514 9.95653C11.7874 9.35483 12.5978 8.94507 13.4801 8.77906C14.3623 8.61305 15.2767 8.69825 16.1078 9.02389C16.9388 9.34953 17.6491 9.90098 18.1489 10.6085C18.6486 11.316 18.9153 12.1479 18.9153 12.9988C18.9153 14.1399 18.4362 15.2342 17.5833 16.0411C16.7303 16.8479 15.5735 17.3012 14.3673 17.3012Z" fill="#EBEBEB"/>
<path d="M23.2838 6.10918C23.2838 6.41546 23.1877 6.71487 23.0079 6.96954C22.828 7.22421 22.5723 7.42269 22.2732 7.5399C21.9741 7.65711 21.645 7.68778 21.3274 7.62803C21.0099 7.56827 20.7182 7.42078 20.4892 7.20421C20.2603 6.98763 20.1044 6.71169 20.0412 6.41129C19.9781 6.11089 20.0105 5.79952 20.1344 5.51655C20.2583 5.23358 20.4681 4.99173 20.7373 4.82157C21.0065 4.6514 21.323 4.56058 21.6468 4.56058C22.0809 4.56058 22.4973 4.72374 22.8043 5.01416C23.1113 5.30457 23.2838 5.69847 23.2838 6.10918Z" fill="#EBEBEB"/>
</svg>
