<svg width="128" height="10" viewBox="0 0 128 10" fill="none" xmlns="http://www.w3.org/2000/svg">
<path d="M127.116 6.54938V6.36534C126.728 6.23112 126.317 6.18287 125.909 6.22377C126.468 5.79906 126.468 5.60086 125.965 5.45221C124.59 5.03637 123.17 4.79858 121.738 4.74436C120.76 4.71294 119.8 4.47183 118.918 4.0365L123.09 4.42582L123.131 4.15684C122.05 3.90628 120.957 3.71723 119.856 3.59056C116.484 3.36405 113.154 2.72698 109.797 2.42968C106.177 2.11115 102.557 1.80677 98.9374 1.49532C93.8629 1.06353 88.7608 1.17678 83.6863 0.787464C81.2594 0.617579 78.86 0.546794 76.4055 0.433538C76.2194 0.433538 75.9987 0.483087 75.8677 0.263653H65.8635C64.9305 0.519224 63.951 0.538656 63.0091 0.320281C63.6786 0.388278 64.3545 0.340424 65.0086 0.178711L61.9128 0.178711C62.1151 0.23062 62.315 0.273091 62.5127 0.306124H57.7691C56.7487 0.66005 55.7007 0.412302 54.6665 0.454773C49.2749 0.504323 43.9039 0.865327 38.5122 0.929034C33.4446 0.985662 28.3908 1.41745 23.3439 1.94126C19.7586 2.31642 16.1596 2.64911 12.6019 3.25787C9.25112 3.82415 5.87961 4.2347 2.72873 5.74951C2.25299 5.9831 1.66005 5.91231 1.16363 6.3441C1.52905 6.63432 1.90826 6.25208 2.27368 6.45736C1.90136 6.88207 1.34289 6.98825 0.894736 7.27847C0.660316 7.4342 0.315581 7.56869 0.350055 7.88014C0.384528 8.1916 0.763737 8.21991 1.03953 8.2907L4.39035 9.17551C4.16283 9.30293 4.05251 9.37371 3.92841 9.43034C3.8043 9.48697 3.47336 9.56483 3.50783 9.79134C3.5423 10.0179 3.87325 10.0037 4.08009 9.99662C6.31397 9.88336 8.54786 9.83381 10.768 9.6073C14.3601 9.25338 17.966 9.07641 21.5651 8.89945C25.1641 8.72249 28.6321 8.67294 32.1415 8.52429C34.3203 8.4535 36.5197 8.62339 38.7191 8.55968C40.4083 8.51013 42.0975 8.55968 43.8005 8.55968C43.8005 8.00048 43.3454 8.24823 43.242 7.92261L72.0687 7.52622C72.5031 7.52622 72.9582 7.70318 73.3925 7.30678C72.9572 7.21335 72.5096 7.19659 72.0687 7.25723C71.1586 7.15813 70.221 7.3988 69.3109 7.04488H66.2427C67.2562 6.63432 68.3111 6.86084 69.2971 6.93162C72.2206 6.81477 75.148 6.8573 78.0671 7.05903C78.1637 7.05903 78.3084 7.05903 78.2464 7.25015C78.243 7.30673 78.243 7.36346 78.2464 7.42004C82.1626 7.3351 86.0719 7.63947 89.9674 7.88014C92.8218 8.05711 95.69 8.18452 98.5444 8.18452C102.957 8.18452 107.363 8.37564 111.768 8.42519C112.19 8.42801 112.61 8.37084 113.016 8.2553C112.41 7.86598 111.713 8.17744 111.086 7.9934C110.707 7.88014 109.99 8.11373 110.003 7.66779C110.017 7.22184 110.741 7.40588 111.134 7.42004C113.203 7.48374 115.23 7.65363 117.277 7.68902C118.249 7.68902 119.229 7.53329 120.214 7.51206C118.92 7.31752 117.613 7.22523 116.305 7.236C116.009 7.236 115.671 7.37049 115.43 7.06611C115.921 7.1055 116.415 7.04537 116.884 6.88915C116.066 6.71876 115.228 6.66398 114.395 6.72634H110.679V6.54938H127.116ZM101.606 3.9728C101.275 3.9728 100.916 3.85246 100.606 4.04358C100.475 4.12145 100.247 4.20639 100.206 3.96572C100.206 3.8737 100.427 3.74629 100.544 3.64011C101.377 3.57148 102.214 3.62391 103.033 3.79584C102.569 3.93955 102.082 3.99473 101.599 3.95864L101.606 3.9728Z" fill="#ABD474"/>
</svg>
