<svg width="27" height="26" viewBox="0 0 27 26" fill="none" xmlns="http://www.w3.org/2000/svg">
<path d="M26.1578 25.2956H26.1638V16.6218C26.1638 12.379 25.1978 9.10958 19.9548 9.10958C18.9707 9.07554 17.9952 9.29467 17.1323 9.74363C16.2695 10.1926 15.5515 10.8546 15.0548 11.6591H14.9818V9.50595H10.0068V25.2947H15.1838V17.477C15.1838 15.4185 15.5968 13.4281 18.2908 13.4281C20.9458 13.4281 20.9858 15.777 20.9858 17.6094V25.2966L26.1578 25.2956Z" fill="#EBEBEB"/>
<path d="M0.577148 9.50848H5.75615V25.2982H0.577148V9.50848Z" fill="#EBEBEB"/>
<path d="M3.1638 0.701883C2.56594 0.698891 1.98062 0.86406 1.4822 1.17641C0.983779 1.48876 0.594734 1.93421 0.36448 2.45616C0.134225 2.97812 0.0731508 3.55304 0.189013 4.1079C0.304876 4.66276 0.592447 5.17252 1.0152 5.57245C1.43796 5.97238 1.97682 6.24442 2.56336 6.35403C3.14989 6.46363 3.75763 6.40586 4.30938 6.18804C4.86113 5.97022 5.332 5.60218 5.66218 5.13067C5.99236 4.65916 6.16696 4.10546 6.16379 3.53988C6.16379 2.7872 5.84772 2.06534 5.28512 1.53311C4.72251 1.00089 3.95944 0.701883 3.1638 0.701883Z" fill="#EBEBEB"/>
</svg>
