<svg width="32" height="24" viewBox="0 0 32 24" fill="none" xmlns="http://www.w3.org/2000/svg">
<path d="M31.1318 2.87257C29.9608 3.35518 28.7224 3.6757 27.4548 3.82424C28.7906 3.07456 29.7893 1.88741 30.2618 0.487702C29.011 1.18925 27.6426 1.68325 26.2158 1.94832C25.3409 1.06443 24.2051 0.449935 22.9561 0.184719C21.7072 -0.0804979 20.4027 0.0158246 19.2124 0.461167C18.0221 0.906509 17.0009 1.68028 16.2815 2.6819C15.5622 3.68353 15.1779 4.86669 15.1788 6.07762C15.1738 6.54021 15.2235 7.00188 15.3268 7.45405C12.7886 7.33621 10.3052 6.71293 8.03901 5.62498C5.77284 4.53703 3.7749 3.00888 2.17579 1.14044C1.35452 2.46837 1.10014 4.04281 1.4646 5.54218C1.82906 7.04156 2.78486 8.35274 4.13679 9.20793C3.12624 9.18094 2.1374 8.92428 1.25379 8.45965V8.52587C1.25568 9.91957 1.765 11.2701 2.69605 12.3502C3.6271 13.4304 4.92305 14.1741 6.36579 14.4563C5.8199 14.5924 5.2573 14.6592 4.69279 14.655C4.28738 14.6618 3.88237 14.6272 3.48479 14.5519C3.89623 15.7508 4.69056 16.7994 5.75835 17.5534C6.82613 18.3073 8.1148 18.7294 9.44679 18.7616C7.18824 20.4323 4.40286 21.3386 1.53579 21.3357C1.02545 21.3391 0.515409 21.3116 0.00878906 21.2534C2.92635 23.0317 6.32605 23.9724 9.79679 23.9617C21.5378 23.9617 27.9568 14.761 27.9568 6.78617C27.9568 6.5194 27.9468 6.26209 27.9338 6.00572C29.1922 5.15391 30.276 4.09216 31.1318 2.87257Z" fill="#EBEBEB"/>
</svg>
