<svg width="37" height="24" viewBox="0 0 37 24" fill="none" xmlns="http://www.w3.org/2000/svg">
<path d="M35.5361 3.78257C35.3295 3.06138 34.9271 2.40389 34.3687 1.87547C33.8102 1.34705 33.1154 0.966104 32.3531 0.770504C29.5271 0.0392456 18.2221 0.0392456 18.2221 0.0392456C18.2221 0.0392456 6.91706 0.0392456 4.09106 0.74307C3.32947 0.948873 2.63664 1.33657 2.0792 1.86887C1.52177 2.40118 1.11846 3.0602 0.908063 3.78257C0.164062 6.45596 0.164062 12.0005 0.164062 12.0005C0.164062 12.0005 0.164062 17.5724 0.908063 20.2184C1.11483 20.9393 1.5174 21.5966 2.07579 22.1248C2.63417 22.6531 3.32894 23.0339 4.09106 23.2295C6.94706 23.9607 18.2221 23.9607 18.2221 23.9607C18.2221 23.9607 29.5221 23.9607 32.3531 23.2569C33.1152 23.0614 33.81 22.6806 34.3684 22.1524C34.9268 21.6241 35.3294 20.9668 35.5361 20.2458C36.2801 17.5724 36.2801 12.0279 36.2801 12.0279C36.2801 12.0279 36.3101 6.45596 35.5361 3.78257Z" fill="#EBEBEB"/>
<path d="M14.625 17.1226L24.025 12.0009L14.625 6.87927V17.1226Z" fill="#1E1E1E"/>
</svg>
