<svg width="70" height="90" viewBox="0 0 70 90" fill="none" xmlns="http://www.w3.org/2000/svg">
<path d="M69.8122 35.3681H63.8815C63.6993 27.7505 60.59 20.5071 55.2177 15.1849C49.8453 9.86267 42.6358 6.88342 35.1288 6.88342C27.6217 6.88342 20.4122 9.86267 15.0399 15.1849C9.66758 20.5071 6.55828 27.7505 6.37605 35.3681H0.493164C0.675238 26.1595 4.40707 17.3905 10.8874 10.9435C17.3678 4.49642 26.0802 0.885292 35.1542 0.885292C44.2283 0.885292 52.9406 4.49642 59.421 10.9435C65.9014 17.3905 69.6332 26.1595 69.8153 35.3681H69.8122Z" fill="#D6D6D6"/>
<path d="M32.7218 64.9922V71.1658C24.1455 70.5537 16.0996 66.7272 10.1476 60.43C4.19561 54.1327 0.762625 45.8143 0.515625 37.0913H6.47124C6.64592 41.8528 7.96344 46.4991 10.3093 50.6263C12.6552 54.7536 15.9584 58.2369 19.932 60.7738C19.4222 59.2402 19.1498 57.6355 19.1244 56.0171V16.5836L19.2071 16.6271L19.2859 16.6737H25.0691V41.1194H31.0188V47.1615H25.0691V56.0201C25.0989 57.7985 25.6232 59.5321 26.5814 61.0212C27.5397 62.5102 28.8929 63.6942 30.4853 64.4366C31.189 64.7651 31.9482 64.9537 32.7218 64.9922Z" fill="#D6D6D6"/>
<path d="M69.8312 36.8058C69.7072 43.0778 67.9353 49.2023 64.6987 54.5464C61.4621 59.8906 56.8782 64.2605 51.4207 67.2045V57.2275C51.4207 56.94 51.4008 56.687 51.4008 56.4016C51.3827 53.936 50.4017 51.5784 48.6732 49.846C46.9447 48.1135 44.6098 47.1477 42.1807 47.1604H32.7192V41.1203H40.5285C41.7459 41.1633 42.9593 40.957 44.0964 40.5138C45.2336 40.0706 46.2712 39.3995 47.1474 38.5406C48.0236 37.6816 48.7204 36.6524 49.1963 35.5143C49.6722 34.3761 49.9175 33.1524 49.9175 31.916C49.9175 30.6796 49.6722 29.4558 49.1963 28.3177C48.7204 27.1796 48.0236 26.1503 47.1474 25.2914C46.2712 24.4324 45.2336 23.7614 44.0964 23.3182C42.9593 22.875 41.7459 22.6687 40.5285 22.7117H26.7686V16.6726H40.5235C43.6115 16.6496 46.6315 17.5931 49.1722 19.3748C51.7129 21.1565 53.6509 23.6898 54.7222 26.6296C55.7936 29.5694 55.9462 32.773 55.1594 35.804C54.3725 38.8351 52.6844 41.5463 50.3249 43.5685C53.8307 45.8406 56.5219 48.887 56.8061 55.2135C61.1848 50.0888 63.6856 43.5864 63.8855 36.8058H69.8312Z" fill="#D6D6D6"/>
<path d="M4.01691 79.1535H1.60791C1.56964 79.1535 1.53241 79.1409 1.50184 79.1175C1.47126 79.0941 1.44896 79.0613 1.43836 79.024L0.672647 76.3004C0.665262 76.2738 0.664015 76.2459 0.669057 76.2187C0.674098 76.1915 0.685261 76.166 0.701676 76.1439C0.718092 76.1218 0.739325 76.1039 0.763691 76.0916C0.788056 76.0792 0.814905 76.0728 0.842136 76.0727H10.0443C10.083 76.0727 10.1207 76.0855 10.1515 76.1092C10.1823 76.133 10.2045 76.1664 10.2148 76.2043L10.9537 78.9278C10.9609 78.9543 10.962 78.9822 10.9568 79.0093C10.9517 79.0363 10.9405 79.0617 10.9241 79.0836C10.9077 79.1056 10.8865 79.1234 10.8623 79.1356C10.838 79.1479 10.8113 79.1544 10.7842 79.1545H7.83574C7.78893 79.1545 7.74408 79.1734 7.71098 79.207C7.67788 79.2406 7.65925 79.2861 7.65925 79.3336V89.4321C7.65925 89.4557 7.65473 89.479 7.64586 89.5007C7.63699 89.5224 7.62397 89.5421 7.60758 89.5588C7.59119 89.5754 7.57173 89.5886 7.55032 89.5976C7.5289 89.6066 7.50594 89.6113 7.48276 89.6113H4.37086C4.32405 89.6113 4.27914 89.5924 4.24604 89.5588C4.21294 89.5252 4.19437 89.4797 4.19437 89.4321V79.3336C4.1945 79.3099 4.18998 79.2865 4.1811 79.2646C4.17223 79.2427 4.15921 79.2227 4.1427 79.2059C4.12619 79.1892 4.10654 79.1759 4.08495 79.1669C4.06335 79.1579 4.04025 79.1534 4.01691 79.1535Z" fill="#D6D6D6"/>
<path d="M18.4787 87.2065H13.0356C13.0047 87.2064 12.9743 87.2146 12.9475 87.2302C12.9207 87.2458 12.8984 87.2684 12.883 87.2956L11.6007 89.5221C11.5852 89.5492 11.5629 89.5717 11.5361 89.5874C11.5094 89.603 11.479 89.6112 11.4481 89.6112H8.28037C8.24949 89.6111 8.21921 89.6028 8.19249 89.5871C8.16577 89.5713 8.14355 89.5488 8.12811 89.5216C8.11266 89.4945 8.10454 89.4637 8.10449 89.4324C8.10444 89.401 8.11251 89.3702 8.12786 89.343L15.6061 76.1516C15.6215 76.1243 15.6438 76.1016 15.6707 76.0858C15.6976 76.07 15.7281 76.0617 15.7591 76.0617C15.7902 76.0617 15.8207 76.07 15.8476 76.0858C15.8744 76.1016 15.8967 76.1243 15.9122 76.1516L23.3844 89.343C23.3998 89.3703 23.4078 89.4012 23.4078 89.4326C23.4077 89.4641 23.3994 89.4949 23.3838 89.5221C23.3683 89.5492 23.3459 89.5718 23.3191 89.5874C23.2922 89.6031 23.2618 89.6113 23.2308 89.6112H20.0631C20.0322 89.6112 20.0018 89.603 19.9751 89.5874C19.9483 89.5717 19.926 89.5492 19.9105 89.5221L18.6283 87.2956C18.6131 87.2688 18.5913 87.2466 18.565 87.231C18.5388 87.2154 18.5091 87.2069 18.4787 87.2065ZM16.991 84.4375L15.9132 82.5662C15.8973 82.5404 15.8752 82.5192 15.8491 82.5045C15.8229 82.4898 15.7935 82.4821 15.7636 82.4821C15.7337 82.4821 15.7043 82.4898 15.6781 82.5045C15.652 82.5192 15.6299 82.5404 15.614 82.5662L14.5292 84.4375C14.5134 84.4647 14.5049 84.4956 14.5047 84.5271C14.5044 84.5587 14.5124 84.5898 14.5278 84.6172C14.5432 84.6446 14.5654 84.6674 14.5923 84.6833C14.6192 84.6992 14.6496 84.7076 14.6807 84.7077H16.8434C16.8744 84.7075 16.9047 84.6991 16.9314 84.6833C16.9582 84.6674 16.9804 84.6447 16.9957 84.6174C17.0111 84.5902 17.0191 84.5593 17.019 84.5279C17.0188 84.4964 17.0106 84.4656 16.995 84.4385L16.991 84.4375Z" fill="#D6D6D6"/>
<path d="M32.0152 89.6098H24.197C24.1502 89.6098 24.1053 89.5909 24.0722 89.5573C24.0391 89.5237 24.0205 89.4782 24.0205 89.4307V76.2555C24.0205 76.2081 24.039 76.1627 24.0719 76.1292C24.1048 76.0956 24.1494 76.0766 24.196 76.0763L27.309 76.0672C27.3558 76.0672 27.4006 76.0861 27.4337 76.1197C27.4668 76.1533 27.4855 76.1988 27.4855 76.2463V86.3357C27.4855 86.3832 27.504 86.4288 27.5371 86.4624C27.5702 86.496 27.6151 86.5149 27.6619 86.5149H32.8338C32.8613 86.5149 32.8884 86.5215 32.9129 86.5341C32.9375 86.5467 32.9588 86.5649 32.9751 86.5873C32.9915 86.6097 33.0025 86.6357 33.0072 86.6632C33.0119 86.6907 33.0103 86.7189 33.0023 86.7456L32.1828 89.4782C32.1726 89.5156 32.1508 89.5486 32.1206 89.5723C32.0904 89.5961 32.0534 89.6092 32.0152 89.6098Z" fill="#D6D6D6"/>
<path d="M33.9834 89.4019V76.2449C33.9834 76.2214 33.988 76.198 33.9969 76.1763C34.0057 76.1546 34.0187 76.1348 34.0351 76.1182C34.0515 76.1015 34.0709 76.0883 34.0923 76.0793C34.1137 76.0703 34.1367 76.0657 34.1599 76.0657H37.9169C38.9182 76.0492 39.916 76.1908 40.8743 76.4857C41.6555 76.7168 42.3476 77.1864 42.8565 77.8308C43.3018 78.4892 43.5476 79.2655 43.5635 80.0639C43.5795 80.8624 43.3649 81.6482 42.9463 82.3244C42.6067 82.8936 42.1001 83.3406 41.4975 83.6026C41.4739 83.6123 41.4526 83.6271 41.4351 83.6459C41.4176 83.6647 41.4042 83.687 41.3959 83.7115C41.3877 83.736 41.3848 83.762 41.3874 83.7878C41.3899 83.8135 41.3979 83.8384 41.4108 83.8607L44.6484 89.3259C44.6644 89.3531 44.673 89.384 44.6734 89.4156C44.6739 89.4473 44.666 89.4784 44.6507 89.5059C44.6355 89.5335 44.6132 89.5565 44.5864 89.5725C44.5595 89.5885 44.529 89.597 44.4978 89.5972H40.8554C40.8238 89.5971 40.7928 89.5884 40.7656 89.572C40.7384 89.5557 40.716 89.5322 40.7008 89.504L37.4852 83.5328H37.4454V89.4028C37.4454 89.4504 37.4267 89.4959 37.3936 89.5295C37.3605 89.5631 37.3157 89.582 37.2689 89.582H34.1569C34.1104 89.5812 34.0662 89.5618 34.0337 89.5281C34.0012 89.4943 33.9831 89.449 33.9834 89.4019ZM37.4483 82.548C37.4485 82.572 37.4532 82.5957 37.4625 82.6178C37.4717 82.6399 37.4851 82.6598 37.502 82.6766C37.5189 82.6934 37.5389 82.7065 37.5608 82.7154C37.5827 82.7243 37.6062 82.7286 37.6298 82.7282C38.0615 82.7259 38.4904 82.6577 38.9021 82.5258C39.2583 82.4161 39.5694 82.1916 39.7885 81.8862C40.0066 81.55 40.1148 81.1527 40.0976 80.7506C40.1294 80.4737 40.0848 80.1933 39.9688 79.9406C39.8527 79.6879 39.6699 79.4729 39.4405 79.3195C38.8752 79.0487 38.2545 78.9186 37.6298 78.94C37.6062 78.9396 37.5827 78.944 37.5608 78.9528C37.5389 78.9617 37.5189 78.9749 37.502 78.9916C37.4851 79.0084 37.4717 79.0284 37.4625 79.0504C37.4532 79.0725 37.4485 79.0962 37.4483 79.1201V82.548Z" fill="#D6D6D6"/>
<path d="M54.9623 77.0191C55.9696 77.6041 56.8077 78.4477 57.3922 79.4653C57.9876 80.492 58.2977 81.6634 58.2896 82.8547C58.3 84.0432 57.9897 85.2119 57.3922 86.234C56.7993 87.2525 55.9549 88.0964 54.9426 88.6827C53.9304 89.269 52.785 89.5773 51.6195 89.5773C50.454 89.5773 49.3087 89.269 48.2964 88.6827C47.2841 88.0964 46.4398 87.2525 45.8468 86.234C45.2492 85.2119 44.9389 84.0432 44.9495 82.8547C44.9411 81.6633 45.2512 80.4919 45.8468 79.4653C46.7434 77.922 48.2032 76.7997 49.9096 76.3418C51.616 75.8838 53.4315 76.1272 54.9623 77.0191ZM49.8352 79.5928C49.2934 79.9426 48.846 80.4242 48.5337 80.9937C48.2214 81.5633 48.0539 82.2029 48.0464 82.8547C48.047 83.5037 48.2159 84.141 48.536 84.7028C48.8429 85.2805 49.2888 85.77 49.8322 86.1257C50.3642 86.4743 50.9838 86.6598 51.617 86.6598C52.2502 86.6598 52.8699 86.4743 53.4018 86.1257C53.9475 85.7689 54.397 85.2799 54.71 84.7028C55.0252 84.1392 55.1909 83.5023 55.1909 82.8542C55.1909 82.2062 55.0252 81.5692 54.71 81.0056C54.4018 80.4305 53.956 79.9433 53.4138 79.5888C52.8805 79.2399 52.2594 79.0543 51.625 79.0544C50.989 79.0514 50.3663 79.2383 49.8342 79.5918L49.8352 79.5928Z" fill="#D6D6D6"/>
<path d="M59.6807 89.4308V76.2505C59.6807 76.203 59.6993 76.1574 59.7324 76.1238C59.7655 76.0902 59.8103 76.0714 59.8572 76.0714H63.9024C64.7106 76.0589 65.518 76.1291 66.3123 76.2809C66.9363 76.3999 67.5316 76.6404 68.0653 76.9893C68.5586 77.3228 68.9513 77.7884 69.1999 78.3344C69.4829 78.986 69.6192 79.6933 69.5988 80.4051C69.609 81.0266 69.4722 81.6417 69.1999 82.1985C68.9339 82.7272 68.5563 83.1899 68.0941 83.5537C67.5923 83.948 67.0216 84.2426 66.412 84.422C65.7503 84.6256 65.0624 84.728 64.371 84.7257H63.332C63.2852 84.7257 63.2404 84.7445 63.2073 84.7781C63.1742 84.8117 63.1555 84.8573 63.1555 84.9048V89.4318C63.1555 89.4793 63.137 89.5249 63.1039 89.5585C63.0708 89.5921 63.0258 89.6109 62.979 89.6109H59.8572C59.8339 89.6109 59.8108 89.6063 59.7894 89.5972C59.7679 89.5881 59.7484 89.5749 59.732 89.5581C59.7156 89.5414 59.7026 89.5215 59.6938 89.4997C59.685 89.4778 59.6805 89.4544 59.6807 89.4308ZM63.1555 79.1218V81.6733C63.1555 81.7208 63.1742 81.7663 63.2073 81.7999C63.2404 81.8335 63.2852 81.8524 63.332 81.8524H64.1517C64.6701 81.8851 65.1857 81.7516 65.6254 81.4708C65.7928 81.347 65.9269 81.1825 66.0156 80.9925C66.1043 80.8024 66.1447 80.5928 66.1329 80.3828C66.1433 80.1758 66.1022 79.9695 66.0135 79.7827C65.9249 79.596 65.7914 79.4348 65.6254 79.3141C65.1834 79.0395 64.6689 78.9094 64.1517 78.9416H63.332C63.2852 78.9416 63.2404 78.9605 63.2073 78.9941C63.1742 79.0277 63.1555 79.0733 63.1555 79.1208V79.1218Z" fill="#D6D6D6"/>
</svg>
