<svg width="178" height="20" viewBox="0 0 178 20" fill="none" xmlns="http://www.w3.org/2000/svg">
<path d="M155.311 13.1984C156.799 15.4024 158.292 17.6128 159.823 19.8818C159.631 19.8967 159.506 19.9153 159.382 19.9153C158.002 19.9171 156.622 19.9032 155.242 19.9255C154.9 19.9311 154.707 19.8 154.516 19.5229C153.313 17.7737 152.089 16.0403 150.889 14.2892C150.694 14.0047 150.488 13.8866 150.155 13.8977C149.477 13.9219 148.798 13.9052 148.084 13.9052C148.072 14.1618 148.056 14.359 148.056 14.5561C148.054 16.1686 148.045 17.7811 148.061 19.3927C148.066 19.7897 147.963 19.9367 147.562 19.9255C146.524 19.8976 145.485 19.9162 144.446 19.9162C144.021 19.9162 143.808 19.6999 143.807 19.2671C143.807 16.9265 143.807 14.585 143.807 12.2443C143.807 8.40003 143.807 4.55479 143.807 0.710482C143.807 0.0744135 143.809 0.0725537 144.426 0.0725537C146.919 0.0725537 149.412 0.0632544 151.905 0.0762734C152.988 0.0818529 154.061 0.189724 155.098 0.570063C156.614 1.12709 157.577 2.21696 157.862 3.85456C158.196 5.7702 158.167 7.71281 157.907 9.63776C157.698 11.1842 156.898 12.3234 155.534 13.0059C155.48 13.0329 155.43 13.0655 155.382 13.1008C155.36 13.1175 155.347 13.1482 155.31 13.1975L155.311 13.1984ZM148.089 4.08239V9.96416C149.471 9.96416 150.821 10.0181 152.166 9.94556C153.118 9.89442 153.671 9.3625 153.725 8.52929C153.788 7.5445 153.797 6.54948 153.737 5.56469C153.684 4.68033 153.232 4.14934 152.397 4.10378C150.981 4.02659 149.558 4.08239 148.088 4.08239H148.089Z" fill="#D6D6D6"/>
<path d="M51.0429 19.8883H46.8086C46.8086 19.7041 46.8086 19.5396 46.8086 19.375C46.8086 13.1287 46.8131 6.88235 46.7988 0.636048C46.7979 0.190614 46.9066 0.0483359 47.3401 0.0613549C48.4076 0.0920424 49.4769 0.084603 50.5444 0.0641446C50.9201 0.0567052 51.0563 0.158067 51.0518 0.582113C51.0314 2.89111 51.0492 5.20105 51.0349 7.51005C51.0322 7.88481 51.1239 8.02523 51.5041 8.02151C53.2696 8.00384 55.0351 8.00198 56.8005 8.02151C57.1923 8.02616 57.2671 7.86435 57.2653 7.50261C57.2537 5.2401 57.2591 2.97667 57.2608 0.714162C57.2608 0.0743738 57.2635 0.0725139 57.876 0.071584C58.9141 0.0706541 59.9531 0.083673 60.9912 0.0650745C61.3634 0.0585651 61.5165 0.160857 61.5156 0.583972C61.5049 6.86096 61.5058 13.1389 61.5147 19.4159C61.5147 19.7925 61.415 19.931 61.0384 19.9236C59.9407 19.9004 58.842 19.8966 57.7452 19.9255C57.3312 19.9366 57.2528 19.7655 57.2555 19.3833C57.268 17.105 57.2617 14.8267 57.2608 12.5484C57.2608 11.917 57.2582 11.917 56.6519 11.916C54.946 11.916 53.2393 11.9281 51.5335 11.9067C51.1373 11.9021 51.0322 12.0323 51.0349 12.4368C51.0518 14.7151 51.0429 16.9934 51.0429 19.2717C51.0429 19.4568 51.0429 19.6409 51.0429 19.8873V19.8883Z" fill="#D6D6D6"/>
<path d="M141.592 19.9138C140.157 19.9138 138.78 19.9222 137.403 19.898C137.296 19.8961 137.136 19.6888 137.096 19.5474C136.811 18.5403 136.54 17.5276 136.29 16.5103C136.207 16.1736 136.076 16.0342 135.722 16.0369C133.868 16.0555 132.014 16.05 130.16 16.0407C129.864 16.0388 129.716 16.1169 129.636 16.447C129.389 17.4811 129.098 18.5031 128.826 19.5316C128.769 19.7473 128.722 19.9259 128.432 19.9222C127.142 19.9064 125.852 19.9138 124.561 19.911C124.504 19.911 124.447 19.8887 124.342 19.8673C124.385 19.6795 124.415 19.5028 124.465 19.3326C126.29 13.0807 128.12 6.82976 129.936 0.575089C130.043 0.204049 130.186 0.0580506 130.57 0.0636301C132.171 0.0859483 133.773 0.0766491 135.374 0.0701396C135.635 0.0692097 135.807 0.111056 135.898 0.423511C137.768 6.83906 139.647 13.2518 141.526 19.6646C141.543 19.7213 141.556 19.7799 141.592 19.9147L141.592 19.9138ZM133 4.14972L132.878 4.14228C132.163 6.7814 131.448 9.4196 130.723 12.0996H135.125C134.41 9.42611 133.705 6.78791 133 4.14972Z" fill="#D6D6D6"/>
<path d="M114.711 13.9056V19.8701H110.48C110.471 19.7185 110.453 19.5549 110.453 19.3921C110.451 13.1319 110.453 6.87162 110.447 0.612298C110.447 0.278455 110.464 0.0608531 110.884 0.0655028C113.731 0.0971202 116.579 0.0729422 119.424 0.145476C120.193 0.165005 120.982 0.372378 121.715 0.637406C123.287 1.20652 124.23 2.44053 124.381 4.14136C124.533 5.84591 124.576 7.58115 124.459 9.28756C124.292 11.737 122.857 13.2974 120.444 13.6387C118.793 13.8721 117.107 13.8275 115.437 13.9037C115.204 13.9139 114.971 13.9056 114.709 13.9056H114.711ZM114.727 9.97478C116.033 9.97478 117.294 10.0213 118.549 9.96083C119.647 9.90782 120.217 9.30709 120.254 8.27674C120.284 7.41098 120.283 6.5415 120.254 5.67574C120.225 4.78394 119.755 4.1767 118.91 4.10416C117.717 4.0028 116.515 4.02512 115.316 3.99629C115.128 3.99164 114.941 3.99629 114.726 3.99629V9.97478H114.727Z" fill="#D6D6D6"/>
<path d="M77.8587 3.98406V8.01342H84.8539V11.9777H77.873V15.9922H85.4611V19.8737H73.6164C73.6075 19.7165 73.5888 19.5529 73.5888 19.3892C73.587 13.128 73.5924 6.86682 73.5781 0.60564C73.5772 0.157416 73.7268 0.0644237 74.115 0.0662835C77.735 0.0774426 81.3541 0.0811623 84.9741 0.0634938C85.4157 0.0616339 85.5216 0.210422 85.51 0.647486C85.4815 1.74294 85.5011 2.84025 85.5011 3.98499H77.8587V3.98406Z" fill="#D6D6D6"/>
<path d="M28.6935 3.99726H21.0271V8.02942H28.0498V11.9732H20.995C20.995 12.8836 20.987 13.7326 20.9986 14.5817C21.0048 15.041 20.8891 15.6446 21.1179 15.9152C21.3146 16.1467 21.9236 16.0119 22.3501 16.0128C24.2633 16.0184 26.1775 16.0156 28.0908 16.0156C28.267 16.0156 28.4433 16.0156 28.657 16.0156V19.885C28.5235 19.8953 28.3819 19.9166 28.2403 19.9166C24.5767 19.9185 20.9122 19.912 17.2486 19.9269C16.8604 19.9287 16.7393 19.8153 16.7402 19.4052C16.7509 13.1449 16.7509 6.88375 16.7402 0.623497C16.7402 0.197592 16.8693 0.0655423 17.2744 0.0674021C20.9238 0.0804211 24.5723 0.0794912 28.2216 0.0674021C28.584 0.0664722 28.7104 0.170624 28.7024 0.564912C28.6784 1.69105 28.6944 2.81812 28.6944 3.99912L28.6935 3.99726Z" fill="#D6D6D6"/>
<path d="M100.516 4.49874C99.4098 4.30903 98.3512 4.05795 97.2793 3.96217C96.1629 3.86174 95.0322 3.87104 93.9104 3.90916C93.2115 3.93334 92.9204 4.32577 92.8901 5.05948C92.8767 5.38402 92.8812 5.71043 92.8865 6.0359C92.9026 6.90724 93.1322 7.30153 93.9255 7.5554C94.928 7.87622 95.9572 8.1087 96.9668 8.40721C97.6212 8.60063 98.2711 8.8173 98.9059 9.06838C100.313 9.62634 101.232 10.6269 101.279 12.2664C101.316 13.5934 101.36 14.9353 101.221 16.2502C101.019 18.15 99.83 19.2185 98.0939 19.5728C94.9485 20.2154 91.8466 20.0908 88.8436 18.7898C88.7626 18.7545 88.6861 18.7089 88.5703 18.6494C88.8027 17.3661 89.0351 16.0828 89.279 14.7344C89.8532 14.9529 90.3821 15.1408 90.9011 15.3547C92.4814 16.0028 94.0982 16.359 95.8103 16.1367C96.7122 16.0196 97.0799 15.6597 97.1092 14.7121C97.1182 14.4182 97.1173 14.1235 97.1119 13.8287C97.0959 12.8839 96.8466 12.4617 95.9679 12.1818C94.9503 11.8572 93.9032 11.6387 92.8776 11.3393C92.1814 11.1356 91.4843 10.9124 90.8166 10.6251C89.693 10.1415 89.0164 9.25158 88.8107 7.98595C88.5632 6.46181 88.5383 4.92929 88.768 3.407C89.0101 1.80195 89.9503 0.823674 91.4424 0.407997C93.0112 -0.0290671 94.6164 -0.0513853 96.2136 0.0499765C97.6283 0.139249 99.0332 0.398698 100.445 0.557715C100.831 0.601422 100.949 0.756719 100.899 1.15101C100.759 2.2539 100.643 3.35958 100.513 4.49967L100.516 4.49874Z" fill="#D6D6D6"/>
<path d="M43.8948 19.3308C41.1473 19.8506 38.4497 20.2635 35.7316 19.6135C33.0384 18.9691 31.5364 17.0385 31.491 14.1455C31.4465 11.2637 31.4545 8.38001 31.4946 5.49818C31.5302 2.91763 33.1559 0.987111 35.7503 0.311986C37.1071 -0.0413855 38.4888 -0.0404556 39.8626 0.0562566C41.1874 0.149249 42.5041 0.375221 43.8894 0.550976C43.7986 1.21215 43.723 1.78685 43.6393 2.35968C43.5547 2.93995 43.455 3.51837 43.3757 4.1005C43.3375 4.38413 43.2253 4.49107 42.9359 4.45945C41.5524 4.30601 40.168 4.15629 38.7809 4.04284C38.3428 4.00751 37.8879 4.04191 37.4552 4.12654C36.361 4.34135 35.7538 5.06018 35.7369 6.27466C35.7022 8.73803 35.6942 11.2033 35.7387 13.6666C35.7654 15.1341 36.653 15.958 38.1924 15.9059C39.7442 15.8538 41.2933 15.6781 42.838 15.5088C43.2164 15.467 43.333 15.5507 43.3829 15.9236C43.5342 17.0404 43.7132 18.1526 43.8912 19.3345L43.8948 19.3308Z" fill="#D6D6D6"/>
<path d="M9.37066 19.8906H5.12835V19.2787C5.12835 14.3808 5.12212 9.48194 5.13814 4.58403C5.13992 4.12557 5.04377 3.97028 4.57725 3.98236C3.19816 4.01677 1.8173 3.98515 0.438211 4.00189C0.107907 4.00561 -0.00516222 3.90146 0.000179621 3.5546C0.0170955 2.54749 0.0144245 1.53945 0.00196024 0.532345C-0.0024913 0.195712 0.109687 0.0673828 0.439101 0.0673828C4.97967 0.0748222 9.51935 0.0748222 14.0599 0.0673828C14.3902 0.0673828 14.5015 0.196642 14.4971 0.532345C14.4846 1.53945 14.4819 2.54749 14.4988 3.5546C14.5042 3.90239 14.3902 4.00468 14.0599 4.00096C12.6657 3.98422 11.2706 4.01119 9.87636 3.98329C9.45346 3.97493 9.36176 4.12278 9.36265 4.53753C9.37512 9.43544 9.37066 14.3343 9.37066 19.2322V19.8897V19.8906Z" fill="#D6D6D6"/>
<path d="M177.362 19.9143C175.769 19.9143 174.286 19.9218 172.804 19.9013C172.673 19.8995 172.496 19.7386 172.421 19.6028C170.676 16.4355 168.94 13.2626 167.218 10.0813C167.137 9.93068 167.139 9.65077 167.218 9.49733C168.809 6.45369 170.415 3.41842 172.031 0.389654C172.108 0.245516 172.314 0.0902186 172.463 0.0883588C173.888 0.0669705 175.312 0.0771997 176.737 0.0809194C176.778 0.0809194 176.821 0.104168 176.925 0.134855C176.839 0.306891 176.766 0.465908 176.682 0.618416C175.076 3.54675 173.473 6.47787 171.854 9.39876C171.689 9.69541 171.701 9.90836 171.866 10.1966C173.604 13.2431 175.327 16.2979 177.055 19.3499C177.143 19.5052 177.226 19.6642 177.363 19.9153L177.362 19.9143Z" fill="#D6D6D6"/>
<path d="M69.6276 19.8873H65.4307C65.4235 19.7143 65.4102 19.5497 65.4102 19.386C65.4093 13.1388 65.4138 6.89158 65.4004 0.645279C65.3995 0.207284 65.4974 0.051057 65.9381 0.063146C67.035 0.0938336 68.1336 0.0789548 69.2323 0.0696555C69.5181 0.0668657 69.6578 0.13289 69.657 0.480682C69.6481 6.8674 69.6498 13.2541 69.6489 19.6399C69.6489 19.7013 69.6383 19.7627 69.6276 19.8873Z" fill="#D6D6D6"/>
<path d="M166.42 19.892H162.206V19.3731C162.206 13.1314 162.211 6.88886 162.197 0.647204C162.196 0.214789 162.284 0.0501924 162.729 0.0632113C163.825 0.0957587 164.922 0.0780901 166.02 0.0715806C166.294 0.0697208 166.46 0.112497 166.46 0.471448C166.452 6.85259 166.454 13.2347 166.452 19.6158C166.452 19.6911 166.435 19.7665 166.42 19.8929V19.892Z" fill="#D6D6D6"/>
</svg>
