<svg width="248" height="28" viewBox="0 0 248 28" fill="none" xmlns="http://www.w3.org/2000/svg">
<path d="M217.166 18.4721C219.247 21.5303 221.334 24.5975 223.476 27.746C223.207 27.7667 223.032 27.7925 222.858 27.7925C220.929 27.7951 218.999 27.7757 217.069 27.8067C216.591 27.8144 216.321 27.6325 216.055 27.2479C214.373 24.8207 212.661 22.4155 210.983 19.9857C210.711 19.5908 210.422 19.4269 209.956 19.4424C209.009 19.476 208.059 19.4528 207.061 19.4528C207.044 19.8089 207.022 20.0825 207.022 20.356C207.019 22.5935 207.006 24.8311 207.029 27.0673C207.036 27.6183 206.892 27.8222 206.331 27.8067C204.879 27.768 203.427 27.7938 201.974 27.7938C201.38 27.7938 201.082 27.4935 201.08 26.8931C201.08 23.6452 201.08 20.396 201.08 17.1481C201.08 11.8137 201.08 6.478 201.08 1.14357C201.08 0.260952 201.084 0.258371 201.947 0.258371C205.432 0.258371 208.918 0.245467 212.404 0.263533C213.919 0.271275 215.419 0.420959 216.868 0.948724C218.988 1.72166 220.335 3.23398 220.733 5.50634C221.2 8.16452 221.16 10.8601 220.797 13.5312C220.504 15.6771 219.385 17.2578 217.478 18.205C217.403 18.2424 217.332 18.2875 217.266 18.3366C217.235 18.3598 217.216 18.4024 217.165 18.4708L217.166 18.4721ZM207.068 5.82248V13.9841C209 13.9841 210.889 14.059 212.768 13.9583C214.1 13.8874 214.873 13.1493 214.948 11.9931C215.036 10.6266 215.049 9.24586 214.966 7.87935C214.891 6.6522 214.26 5.91539 213.092 5.85216C211.111 5.74506 209.122 5.82248 207.067 5.82248H207.068Z" fill="#247D3D"/>
<path d="M71.3699 27.7564H65.4492C65.4492 27.501 65.4492 27.2726 65.4492 27.0442C65.4492 18.3767 65.4555 9.70921 65.4356 1.04174C65.4343 0.423648 65.5862 0.22622 66.1924 0.244285C67.6851 0.286868 69.1802 0.276545 70.6728 0.248156C71.1981 0.237833 71.3886 0.378485 71.3824 0.966897C71.3537 4.17091 71.3786 7.37621 71.3587 10.5802C71.355 11.1002 71.4832 11.2951 72.0148 11.2899C74.4834 11.2654 76.952 11.2628 79.4206 11.2899C79.9683 11.2964 80.0729 11.0719 80.0704 10.5699C80.0542 7.4304 80.0617 4.28962 80.0642 1.15013C80.0642 0.262351 80.0679 0.25977 80.9244 0.258479C82.3759 0.257189 83.8287 0.275254 85.2803 0.249447C85.8006 0.240414 86.0147 0.382356 86.0135 0.969478C85.9986 9.67953 85.9998 18.3909 86.0123 27.1009C86.0123 27.6235 85.8728 27.8158 85.3462 27.8055C83.8113 27.7732 82.2751 27.7681 80.7414 27.8081C80.1625 27.8235 80.053 27.5861 80.0567 27.0558C80.0742 23.8943 80.0654 20.7329 80.0642 17.5715C80.0642 16.6953 80.0605 16.6953 79.2127 16.694C76.8275 16.694 74.4411 16.7108 72.0559 16.6811C71.5019 16.6747 71.355 16.8553 71.3587 17.4166C71.3824 20.5781 71.3699 23.7395 71.3699 26.9009C71.3699 27.1577 71.3699 27.4132 71.3699 27.7552V27.7564Z" fill="#247D3D"/>
<path d="M197.982 27.7912C195.975 27.7912 194.05 27.8028 192.124 27.7693C191.974 27.7667 191.752 27.4789 191.696 27.2828C191.297 25.8853 190.918 24.4801 190.568 23.0684C190.452 22.6013 190.269 22.4078 189.773 22.4116C187.182 22.4374 184.588 22.4297 181.997 22.4168C181.583 22.4142 181.375 22.5226 181.265 22.9807C180.919 24.4156 180.512 25.8337 180.132 27.2609C180.052 27.5602 179.986 27.808 179.58 27.8028C177.776 27.7809 175.973 27.7912 174.168 27.7873C174.088 27.7873 174.008 27.7564 173.861 27.7267C173.921 27.466 173.963 27.2209 174.033 26.9847C176.585 18.3095 179.145 9.63559 181.683 0.956503C181.834 0.441642 182.033 0.239053 182.569 0.246795C184.809 0.277764 187.048 0.26486 189.288 0.255828C189.653 0.254537 189.893 0.312604 190.02 0.746172C192.634 9.64849 195.262 18.5469 197.889 27.4454C197.913 27.5241 197.931 27.6054 197.981 27.7925L197.982 27.7912ZM185.968 5.91672L185.797 5.9064C184.798 9.56849 183.798 13.2293 182.783 16.9482H188.939C187.94 13.2383 186.954 9.57752 185.968 5.91672Z" fill="#247D3D"/>
<path d="M160.395 19.4541V27.7306H154.48C154.467 27.5202 154.441 27.2931 154.441 27.0673C154.439 18.3805 154.441 9.69365 154.434 1.00811C154.434 0.544866 154.457 0.242917 155.044 0.249369C159.025 0.293242 163.007 0.259692 166.986 0.360342C168.06 0.387439 169.164 0.675194 170.189 1.04295C172.387 1.83266 173.706 3.545 173.917 5.9051C174.129 8.27036 174.189 10.6782 174.026 13.0461C173.792 16.4449 171.786 18.6102 168.411 19.0837C166.103 19.4076 163.745 19.3457 161.41 19.4515C161.085 19.4657 160.759 19.4541 160.393 19.4541H160.395ZM160.418 13.9996C162.244 13.9996 164.007 14.0642 165.762 13.9803C167.297 13.9067 168.095 13.0732 168.146 11.6434C168.188 10.4421 168.187 9.23557 168.146 8.03422C168.105 6.79675 167.449 5.95413 166.266 5.85348C164.598 5.71283 162.917 5.7438 161.242 5.7038C160.979 5.69735 160.717 5.7038 160.417 5.7038V13.9996H160.418Z" fill="#247D3D"/>
<path d="M108.866 5.68684V11.2781H118.647V16.7789H108.886V22.3495H119.496V27.7355H102.934C102.922 27.5175 102.896 27.2904 102.896 27.0633C102.893 18.3751 102.901 9.68702 102.881 0.998897C102.88 0.376934 103.089 0.247896 103.632 0.250477C108.693 0.265962 113.754 0.271123 118.815 0.246606C119.433 0.244025 119.581 0.450486 119.565 1.05696C119.525 2.57703 119.552 4.09968 119.552 5.68813H108.866V5.68684Z" fill="#247D3D"/>
<path d="M40.1201 5.70488H29.4004V11.3H39.22V16.7725H29.3556C29.3556 18.0357 29.3444 19.2139 29.3605 20.392C29.3693 21.0294 29.2074 21.8669 29.5274 22.2424C29.8025 22.5637 30.654 22.3766 31.2503 22.3779C33.9255 22.3856 36.602 22.3817 39.2773 22.3817C39.5238 22.3817 39.7703 22.3817 40.069 22.3817V27.751C39.8823 27.7652 39.6844 27.7949 39.4864 27.7949C34.3637 27.7974 29.2398 27.7884 24.1171 27.8091C23.5743 27.8116 23.405 27.6542 23.4063 27.0852C23.4212 18.3983 23.4212 9.71021 23.4063 1.02338C23.4063 0.432389 23.5868 0.249155 24.1532 0.251736C29.256 0.269801 34.3575 0.268511 39.4603 0.251736C39.967 0.250445 40.1437 0.394968 40.1325 0.942088C40.0989 2.50474 40.1213 4.06868 40.1213 5.70746L40.1201 5.70488Z" fill="#247D3D"/>
<path d="M140.548 6.40072C139 6.13749 137.52 5.78908 136.021 5.65617C134.46 5.51681 132.879 5.52972 131.311 5.58262C130.333 5.61617 129.926 6.16071 129.884 7.17882C129.865 7.62916 129.871 8.08209 129.879 8.53372C129.901 9.7428 130.223 10.2899 131.332 10.6422C132.733 11.0874 134.173 11.41 135.584 11.8242C136.499 12.0926 137.408 12.3932 138.296 12.7416C140.264 13.5159 141.549 14.9043 141.613 17.1793C141.666 19.0206 141.728 20.8826 141.532 22.7072C141.251 25.3435 139.588 26.8261 137.16 27.3178C132.762 28.2094 128.425 28.0365 124.226 26.2313C124.113 26.1822 124.006 26.119 123.844 26.0364C124.169 24.2557 124.494 22.475 124.835 20.6039C125.638 20.9072 126.377 21.1678 127.103 21.4646C129.313 22.364 131.573 22.8582 133.967 22.5498C135.228 22.3872 135.742 21.8878 135.783 20.573C135.796 20.1652 135.795 19.7561 135.787 19.3471C135.765 18.0361 135.416 17.4502 134.188 17.0618C132.765 16.6115 131.301 16.3083 129.866 15.8927C128.893 15.6102 127.918 15.3005 126.985 14.9017C125.414 14.2307 124.467 12.9958 124.18 11.2396C123.834 9.12471 123.799 6.99817 124.12 4.88582C124.459 2.65862 125.773 1.30115 127.86 0.724347C130.053 0.117869 132.298 0.0869 134.531 0.227551C136.509 0.351428 138.474 0.711443 140.448 0.932098C140.987 0.992746 141.153 1.20824 141.083 1.75536C140.886 3.28575 140.724 4.82001 140.543 6.40201L140.548 6.40072Z" fill="#247D3D"/>
<path d="M61.376 26.9821C57.5343 27.7034 53.7623 28.2763 49.9617 27.3743C46.1959 26.4801 44.0958 23.8013 44.0323 19.7869C43.9701 15.788 43.9813 11.7866 44.0373 7.78767C44.0871 4.20687 46.3602 1.52804 49.9878 0.59123C51.885 0.100886 53.8171 0.102176 55.738 0.236375C57.5903 0.365413 59.4315 0.678975 61.3686 0.922857C61.2416 1.84032 61.1358 2.63777 61.0188 3.43264C60.9005 4.23784 60.7611 5.04045 60.6503 5.84823C60.5967 6.2418 60.4399 6.39019 60.0353 6.34632C58.1007 6.13341 56.1649 5.92565 54.2254 5.76823C53.6129 5.71919 52.9768 5.76694 52.3718 5.88436C50.8418 6.18244 49.9928 7.1799 49.9692 8.86514C49.9206 12.2834 49.9094 15.7041 49.9716 19.1224C50.009 21.1586 51.2501 22.3019 53.4025 22.2296C55.5724 22.1573 57.7385 21.9134 59.8984 21.6786C60.4274 21.6205 60.5905 21.7367 60.6602 22.2541C60.8719 23.8039 61.1221 25.3471 61.3711 26.9872L61.376 26.9821Z" fill="#247D3D"/>
<path d="M13.1027 27.7602H7.17079V26.9111C7.17079 20.1147 7.16207 13.317 7.18448 6.52054C7.18697 5.88439 7.05252 5.66889 6.4002 5.68567C4.47188 5.73341 2.54106 5.68954 0.612734 5.71277C0.150882 5.71793 -0.00721815 5.5734 0.000251157 5.09209C0.023904 3.69461 0.0201693 2.29584 0.00274093 0.898363C-0.0034835 0.431246 0.153372 0.253174 0.613979 0.253174C6.96289 0.263497 13.3106 0.263497 19.6595 0.253174C20.1213 0.253174 20.2769 0.432536 20.2707 0.898363C20.2533 2.29584 20.2495 3.69461 20.2732 5.09209C20.2807 5.5747 20.1213 5.71664 19.6595 5.71147C17.71 5.68825 15.7592 5.72567 13.8098 5.68696C13.2184 5.67534 13.0902 5.88051 13.0915 6.45602C13.1089 13.2524 13.1027 20.0502 13.1027 26.8466V27.7589V27.7602Z" fill="#247D3D"/>
<path d="M247.997 27.7923C245.77 27.7923 243.698 27.8026 241.625 27.7743C241.442 27.7717 241.194 27.5484 241.09 27.36C238.65 22.965 236.222 18.5622 233.815 14.1479C233.701 13.9388 233.704 13.5504 233.815 13.3375C236.039 9.11409 238.284 4.9023 240.544 0.699532C240.651 0.499523 240.94 0.28403 241.148 0.281449C243.14 0.251771 245.132 0.265965 247.124 0.271126C247.182 0.271126 247.242 0.303386 247.387 0.345968C247.267 0.584688 247.165 0.805343 247.048 1.01697C244.802 5.08037 242.56 9.14764 240.297 13.2007C240.066 13.6124 240.083 13.9078 240.313 14.3079C242.743 18.5351 245.153 22.774 247.569 27.0091C247.692 27.2246 247.808 27.4452 248 27.7936L247.997 27.7923Z" fill="#247D3D"/>
<path d="M97.358 27.7536H91.4896C91.4796 27.5136 91.461 27.2852 91.461 27.0581C91.4597 18.3893 91.4659 9.72053 91.4473 1.05306C91.446 0.44529 91.583 0.228506 92.1992 0.245281C93.7329 0.287864 95.2691 0.267218 96.8053 0.254314C97.2049 0.250443 97.4003 0.34206 97.3991 0.824661C97.3866 9.68698 97.3891 18.5493 97.3879 27.4103C97.3879 27.4955 97.3729 27.5807 97.358 27.7536Z" fill="#247D3D"/>
<path d="M232.697 27.7601H226.805V27.0401C226.805 18.3791 226.812 9.71675 226.793 1.05573C226.792 0.455704 226.914 0.227307 227.536 0.245372C229.069 0.290535 230.604 0.266018 232.139 0.256985C232.521 0.254404 232.753 0.313762 232.753 0.811848C232.742 9.66643 232.745 18.5223 232.742 27.3769C232.742 27.4814 232.719 27.5859 232.697 27.7614V27.7601Z" fill="#247D3D"/>
</svg>
