<svg width="32" height="32" viewBox="0 0 32 32" fill="none" xmlns="http://www.w3.org/2000/svg">
<g clip-path="url(#clip0_2076_15277)">
<path d="M2.875 18.875H0.9375C0.419312 18.875 0 19.2943 0 19.8125V31.0625C0 31.5807 0.419312 32 0.9375 32H2.875C4.42587 32 5.6875 30.7384 5.6875 29.1875V21.6875C5.6875 20.1366 4.42587 18.875 2.875 18.875Z" fill="white"/>
<path d="M21.6875 0C16.0062 0 11.375 4.63119 11.375 10.3125C11.375 12.7875 12.2562 15.0562 13.7188 16.8374C14.9 17.1749 16.0062 17.7749 16.9437 18.6C17.12 18.7322 17.2196 18.7307 17.4124 18.75H20.75C22.0437 18.75 23.1875 19.3874 23.8438 20.4C28.4938 19.4062 32 15.2625 32 10.3125C32 4.63119 27.3688 0 21.6875 0ZM22.6437 14.8312H22.625V15.9375C22.625 16.4624 22.2126 16.875 21.6875 16.875C21.1624 16.875 20.75 16.4624 20.75 15.9375V14.8312C20.1313 14.6249 19.55 14.2312 19.0438 13.6125C18.7062 13.2187 18.7626 12.6374 19.1563 12.3C19.55 11.9625 20.15 12.0187 20.4688 12.4125C20.9751 13.0125 21.5375 13.2375 22.0063 13.0687C22.3813 12.9374 22.625 12.5812 22.625 12.1875C22.625 11.6624 22.2126 11.25 21.6875 11.25C20.1313 11.25 18.875 9.99369 18.875 8.4375C18.875 7.31244 19.55 6.28119 20.6 5.85C20.6376 5.83125 20.6938 5.83125 20.75 5.81244V4.6875C20.75 4.16244 21.1624 3.75 21.6875 3.75C22.2126 3.75 22.625 4.16244 22.625 4.6875V5.81244C23.1125 5.98125 23.5813 6.225 24.0125 6.63744C24.3875 6.99369 24.3875 7.59369 24.0312 7.96875C23.675 8.34381 23.075 8.34375 22.6999 7.9875C22.2499 7.55619 21.7438 7.3875 21.3312 7.57494C20.975 7.725 20.75 8.0625 20.75 8.4375C20.75 8.96244 21.1624 9.375 21.6875 9.375C23.2437 9.375 24.5 10.6312 24.5 12.1875C24.5 13.3687 23.7499 14.4187 22.6437 14.8312Z" fill="white"/>
<path d="M31.7188 20.6939C31.6062 20.5065 31.4563 20.3564 31.2875 20.2252C30.5972 19.6213 29.4341 19.6784 28.7563 20.4128L24.5 25.3253L24.3687 25.4751C23.8438 26.0564 23.0938 26.3752 22.3062 26.3752H14.9688C14.4437 26.3752 14.0312 25.9626 14.0312 25.4377C14.0312 24.9126 14.4437 24.5002 14.9688 24.5002H20.75C21.7812 24.5002 22.625 23.6564 22.625 22.6252V22.6064C22.6062 21.5752 21.7812 20.7502 20.75 20.7502H17.2938C16.7315 20.7502 16.1289 20.5438 15.6438 20.1314C13.3563 18.1252 10.0187 17.9939 7.5625 19.7003V31.2314C9.41875 31.7378 11.3313 32.0003 13.2624 32.0003H21.6875C23.7499 32.0003 25.7 31.0252 26.9375 29.3752L31.4376 23.3752C32.0941 22.5134 32.1436 21.3315 31.7188 20.6939Z" fill="white"/>
</g>
<defs>
<clipPath id="clip0_2076_15277">
<rect width="32" height="32" fill="white"/>
</clipPath>
</defs>
</svg>
